<?xml version="1.0" standalone="no"?>
<!DOCTYPE svg PUBLIC "-//W3C//DTD SVG 20010904//EN"
 "http://www.w3.org/TR/2001/REC-SVG-20010904/DTD/svg10.dtd">
<svg version="1.0" xmlns="http://www.w3.org/2000/svg"
 width="300.000000pt" height="300.000000pt" viewBox="0 0 300.000000 300.000000"
 preserveAspectRatio="xMidYMid meet">
<metadata>
Created by potrace 1.14, written by Peter Selinger 2001-2017
</metadata>
<g transform="translate(0.000000,300.000000) scale(0.100000,-0.100000)"
fill="#000000" stroke="none">
<path d="M1481 2921 c-1 -8 -7 -11 -17 -7 -10 4 -13 2 -8 -6 5 -8 2 -9 -10 -5
-11 4 -15 3 -10 -4 4 -7 -4 -9 -25 -6 -21 4 -29 2 -24 -6 4 -6 0 -8 -10 -4
-12 4 -14 2 -10 -10 5 -12 1 -14 -17 -8 -13 4 -20 3 -17 -2 3 -5 -7 -8 -22 -7
-15 1 -35 -5 -46 -12 -10 -8 -14 -14 -9 -14 6 0 15 5 22 12 8 8 12 8 12 1 0
-15 -22 -22 -53 -16 -23 5 -26 3 -21 -13 3 -11 2 -15 -3 -9 -14 17 -33 16 -33
-2 0 -10 -4 -14 -8 -8 -4 6 -13 11 -21 13 -12 3 -12 0 -1 -13 11 -13 10 -15
-4 -9 -9 3 -24 0 -33 -7 -15 -12 -16 -12 -10 5 6 15 5 17 -6 8 -8 -7 -18 -8
-23 -4 -4 4 -2 -1 5 -11 12 -15 12 -17 -3 -11 -10 4 -16 1 -16 -7 0 -11 -3
-11 -10 1 -8 12 -10 12 -10 1 0 -10 -3 -11 -14 -2 -10 9 -16 8 -26 -4 -7 -8
-17 -12 -23 -8 -6 4 -8 0 -4 -9 4 -12 1 -14 -14 -11 -12 3 -19 0 -19 -8 0 -9
-3 -10 -8 -4 -12 17 -41 14 -34 -4 5 -13 3 -14 -10 -3 -13 10 -18 9 -29 -5
-12 -14 -12 -16 0 -8 9 5 12 4 8 -3 -8 -11 -25 -11 -44 1 -13 8 -17 2 -14 -17
1 -5 -7 -6 -19 -3 -12 3 -18 1 -14 -5 5 -7 -3 -9 -20 -6 -14 3 -29 1 -32 -4
-3 -4 -10 -5 -16 -2 -7 5 -8 2 -3 -6 11 -18 -16 -32 -34 -17 -12 9 -13 9 -7 0
5 -9 0 -13 -16 -13 -44 0 -55 -3 -54 -18 0 -8 -6 -17 -14 -19 -13 -4 -13 -3 0
6 13 9 13 11 -2 11 -10 0 -18 -5 -18 -11 0 -5 -4 -8 -9 -5 -14 9 -42 -5 -34
-17 3 -5 1 -7 -5 -3 -5 3 -13 0 -16 -6 -3 -7 -3 -2 0 12 4 17 2 21 -4 11 -8
-11 -11 -11 -16 0 -3 8 -3 4 -1 -8 6 -23 -9 -40 -20 -23 -5 7 -11 5 -19 -6
-10 -13 -15 -14 -21 -4 -6 9 -4 11 5 5 9 -5 11 -4 6 4 -4 6 -12 9 -17 5 -5 -3
-6 -10 -3 -16 5 -7 0 -9 -14 -6 -15 4 -25 0 -32 -10 -6 -11 -9 -12 -10 -4 0 7
-5 10 -10 7 -6 -4 -8 -11 -5 -16 3 -5 -2 -6 -11 -2 -12 4 -15 3 -10 -5 5 -8 1
-10 -10 -5 -13 5 -15 3 -9 -7 6 -10 4 -10 -10 -3 -22 13 -57 5 -48 -11 4 -6
-1 -4 -11 3 -16 13 -17 13 -14 -5 2 -12 -3 -19 -12 -19 -8 0 -21 -4 -29 -9
-10 -6 -12 -5 -7 2 11 19 -5 14 -21 -5 -8 -10 -12 -13 -9 -6 3 6 0 10 -7 9
-16 -2 -64 -36 -52 -36 6 0 4 -4 -3 -9 -11 -7 -11 -11 2 -24 17 -16 22 -32 8
-23 -5 3 -9 -1 -9 -10 0 -9 7 -13 21 -9 12 3 15 2 9 -1 -14 -6 -18 -34 -5 -34
4 0 8 -8 9 -17 2 -53 8 -81 15 -77 4 3 8 -1 8 -8 0 -9 3 -9 10 2 13 19 13 4 0
-19 -7 -14 -3 -23 17 -41 20 -18 23 -24 12 -31 -13 -8 -5 -13 14 -10 4 1 3 -8
-3 -19 -9 -16 -8 -19 6 -13 11 4 15 2 11 -4 -4 -6 0 -14 8 -17 13 -4 14 -10 5
-26 -9 -16 -8 -18 5 -14 10 4 15 0 15 -11 0 -10 4 -13 13 -9 7 5 6 0 -3 -11
-9 -11 -10 -16 -3 -11 9 5 13 0 13 -13 0 -12 9 -26 20 -33 11 -7 20 -19 20
-26 0 -7 5 -10 12 -6 8 5 9 0 5 -15 -4 -17 -2 -21 9 -17 7 3 13 2 13 -2 -3
-20 2 -25 12 -12 9 12 10 12 5 -3 -3 -10 1 -25 9 -34 8 -8 13 -19 10 -24 -4
-5 1 -6 9 -3 12 5 16 0 16 -17 0 -19 2 -21 10 -9 7 12 10 8 10 -15 0 -23 3
-27 10 -15 7 11 10 11 10 2 0 -8 5 -10 12 -6 8 5 8 2 -1 -10 -8 -9 -10 -16 -5
-15 19 3 34 -1 34 -12 0 -5 -5 -7 -12 -3 -7 4 -8 3 -4 -5 4 -6 12 -9 17 -6 5
4 16 0 24 -9 11 -11 12 -16 2 -20 -6 -4 -2 -4 11 -2 19 4 21 2 12 -9 -10 -12
-8 -13 10 -10 19 4 20 2 8 -12 -7 -9 -8 -14 -2 -10 6 4 25 -7 43 -23 17 -17
36 -30 41 -30 6 0 8 -5 4 -11 -4 -7 -1 -10 7 -7 8 3 27 -9 43 -26 16 -17 25
-24 20 -16 -5 9 -1 7 10 -5 10 -11 21 -20 25 -20 3 0 5 -4 3 -8 -1 -5 2 -6 8
-2 5 3 10 1 10 -5 0 -6 5 -8 10 -5 6 3 10 1 10 -5 0 -7 6 -10 13 -7 6 2 24
-10 38 -26 18 -21 28 -26 34 -18 5 9 11 7 22 -6 8 -10 12 -12 8 -6 -4 9 -1 11
10 7 10 -4 14 -13 10 -28 -4 -13 -3 -16 2 -9 9 13 56 6 48 -7 -3 -4 2 -10 10
-13 10 -4 12 -1 8 10 -4 11 -2 14 5 9 7 -4 12 -14 12 -22 0 -8 5 -14 11 -14 5
0 7 5 3 11 -4 8 -1 8 12 1 11 -5 26 -8 35 -7 9 2 16 -3 16 -11 0 -10 -4 -11
-13 -3 -8 7 -14 7 -19 -1 -4 -6 -3 -10 2 -9 4 1 10 0 13 -1 21 -8 40 -6 40 3
0 8 4 7 9 -2 5 -7 14 -10 20 -7 6 4 11 0 11 -11 0 -14 2 -15 9 -4 6 9 10 10
12 2 2 -6 22 -13 44 -15 22 -2 48 -7 57 -11 9 -4 22 -4 28 0 5 3 10 -1 10 -9
0 -10 6 -13 17 -9 10 4 14 2 10 -4 -3 -5 0 -10 8 -10 8 0 12 4 9 9 -3 4 -1 8
5 8 5 0 12 -4 16 -10 3 -5 13 -6 22 -3 10 4 14 2 10 -4 -3 -5 1 -10 9 -10 8 0
13 6 10 13 -3 8 0 11 9 7 8 -3 12 -10 8 -17 -4 -6 0 -6 9 2 13 10 17 10 21 0
4 -9 6 -9 6 2 1 12 3 12 10 2 4 -7 18 -14 29 -15 12 -1 22 -5 22 -10 0 -5 7
-1 16 7 8 9 21 16 27 15 9 0 8 -2 0 -6 -7 -2 -13 -9 -13 -14 0 -6 8 -6 19 1
25 13 34 13 26 0 -3 -6 1 -7 9 -4 9 3 13 11 9 18 -4 7 -1 6 7 -1 11 -10 18 -9
34 4 12 10 15 11 9 3 -21 -24 -14 -34 9 -14 12 10 18 13 14 7 -8 -15 10 -18
19 -3 3 5 13 6 22 3 12 -5 14 -3 8 7 -5 9 -4 11 4 6 6 -4 8 -12 5 -18 -4 -6 1
-8 15 -3 12 4 28 2 36 -5 11 -9 17 -7 27 9 7 12 16 21 21 21 4 0 6 -4 3 -9 -7
-11 13 -9 32 2 7 5 12 3 12 -3 0 -6 5 -8 10 -5 6 4 8 11 5 16 -4 5 4 5 19 -1
21 -7 26 -6 26 5 0 21 20 19 21 -2 0 -15 2 -15 9 2 5 11 9 14 9 7 1 -7 6 -10
11 -7 6 4 8 11 5 16 -3 5 1 6 10 3 8 -4 22 -1 29 5 11 9 16 9 21 0 6 -8 10 -8
15 2 7 10 12 10 23 1 12 -10 15 -9 13 5 -1 12 5 17 18 15 12 -2 15 1 11 8 -6
9 -2 9 13 1 15 -8 23 -7 33 5 10 12 14 12 20 2 7 -10 9 -9 9 3 0 20 27 33 34
16 2 -7 8 -2 12 11 5 18 9 20 16 10 7 -10 11 -9 23 6 14 18 20 15 16 -7 -1 -5
3 -6 9 -2 6 3 8 10 5 15 -3 5 4 14 16 20 15 8 19 8 15 1 -5 -7 -1 -8 9 -5 9 4
14 12 12 18 -3 7 4 12 17 12 13 -1 20 4 18 13 -3 12 0 12 12 2 13 -11 17 -10
22 3 4 10 13 15 21 12 8 -3 11 -1 8 4 -6 9 7 14 27 11 4 0 5 6 2 14 -4 8 -1
15 5 15 6 0 11 -6 12 -12 0 -7 5 -3 11 10 7 13 17 21 25 18 7 -3 13 1 13 9 0
8 6 14 13 13 6 -2 11 2 10 9 -2 7 6 10 18 8 17 -3 19 -1 9 10 -9 11 -7 12 9 8
19 -5 26 4 23 28 -1 4 6 6 16 5 9 0 17 6 17 14 0 9 8 14 19 12 13 -3 17 1 13
12 -4 10 -1 13 9 9 9 -3 14 1 14 13 0 16 2 17 11 4 9 -12 10 -11 6 7 -3 15 -1
20 9 16 9 -3 14 1 14 11 0 10 7 16 16 14 10 -2 18 5 19 15 2 9 -2 17 -8 18 -7
0 -1 5 13 10 24 10 24 11 6 25 -13 9 -15 14 -6 14 7 0 10 3 7 7 -4 3 -2 12 4
20 15 17 21 115 6 106 -6 -3 -7 -1 -3 6 4 6 12 8 18 5 6 -4 8 1 3 16 -6 17 -4
21 6 15 8 -5 5 1 -5 13 -11 12 -16 25 -13 29 4 3 7 1 7 -5 0 -7 4 -12 10 -12
5 0 6 7 3 17 -4 11 -3 14 5 9 19 -11 14 5 -5 20 -17 13 -17 14 2 7 11 -3 17
-2 12 2 -4 5 1 18 10 29 18 21 18 21 -4 2 -21 -18 -22 -18 -20 2 0 11 5 18 11
15 5 -4 7 1 3 10 -3 10 -3 17 1 17 4 0 7 11 7 24 0 13 -5 22 -11 19 -6 -2 -11
3 -11 11 0 8 5 12 12 10 16 -7 12 70 -5 93 -14 16 -14 17 3 4 20 -15 23 -2 5
18 -11 12 -9 13 7 7 19 -6 19 -5 2 8 -10 8 -13 16 -7 18 5 1 12 13 15 26 2 12
0 20 -4 17 -5 -3 -12 2 -15 11 -9 22 -8 24 10 24 8 0 12 5 9 10 -4 6 -10 8
-15 5 -4 -3 -6 5 -3 17 3 13 2 20 -2 16 -4 -4 -17 2 -27 14 -10 12 -31 22 -46
23 -17 0 -26 5 -24 13 1 8 -2 11 -7 7 -6 -3 -8 -13 -5 -23 5 -15 4 -15 -6 1
-6 9 -15 15 -20 12 -5 -3 -12 0 -16 6 -4 7 -3 9 4 5 6 -3 13 -2 17 3 6 11 -27
7 -46 -5 -8 -4 -9 1 -4 17 7 22 7 22 -9 6 -19 -19 -31 -23 -21 -7 3 6 1 10 -6
10 -7 0 -22 8 -33 18 -20 16 -20 16 -7 -1 12 -15 12 -17 -3 -11 -9 3 -16 10
-16 15 0 4 -7 5 -17 2 -12 -5 -14 -3 -8 7 6 10 4 12 -8 7 -10 -4 -17 -1 -17 5
0 6 -3 8 -7 5 -3 -4 -13 -1 -21 6 -13 9 -14 9 -8 0 4 -7 2 -13 -3 -13 -6 0
-11 8 -11 18 0 14 -2 15 -10 2 -8 -12 -10 -12 -10 -1 0 10 -3 11 -14 2 -11 -9
-16 -9 -22 0 -4 8 -3 9 4 5 8 -5 10 -2 6 9 -5 12 -9 13 -20 4 -12 -10 -18 -6
-16 12 1 3 -10 4 -23 1 -17 -3 -25 0 -25 9 0 11 -2 11 -10 -1 -7 -11 -10 -11
-10 -2 0 7 -4 11 -9 7 -5 -3 -12 -1 -16 5 -4 6 -11 7 -17 4 -8 -5 -9 -1 -4 11
5 14 4 16 -8 6 -11 -9 -15 -8 -20 5 -5 14 -9 14 -23 3 -9 -8 -14 -9 -10 -3 4
7 0 15 -9 18 -8 3 -12 2 -9 -4 3 -6 -1 -7 -9 -4 -9 3 -16 11 -16 16 0 6 -7 4
-16 -3 -15 -12 -16 -11 -9 11 7 24 7 24 -8 5 -15 -19 -16 -19 -23 -2 -5 15 -9
16 -15 5 -7 -10 -9 -9 -9 3 0 9 -9 19 -20 22 -11 3 -18 2 -16 -2 3 -4 -4 -7
-14 -7 -10 0 -17 3 -14 7 5 9 -25 21 -37 14 -5 -4 -6 1 -2 11 5 14 3 15 -15 5
-15 -8 -23 -8 -28 1 -5 7 -3 8 6 3 9 -5 11 -4 6 4 -6 9 -11 9 -24 -1 -12 -10
-14 -10 -8 0 4 7 1 12 -9 12 -9 0 -14 4 -11 8 3 5 -1 9 -9 9 -8 0 -12 -4 -10
-8 4 -6 -18 -5 -35 1 -3 1 -8 2 -12 1 -4 0 -4 7 -1 17 3 9 3 14 -2 10 -4 -4
-14 -3 -22 4 -7 6 -16 8 -20 4 -3 -3 -1 -6 5 -6 7 0 12 -6 12 -12 -1 -7 -9 -3
-19 10 -13 15 -21 18 -24 10 -4 -9 -12 -5 -26 12 -18 21 -20 22 -15 5 5 -18 4
-18 -8 -4 -7 9 -25 15 -39 15 -18 -1 -25 3 -22 11 5 12 -7 17 -34 14 -7 -1
-13 3 -13 9 0 5 -5 10 -11 10 -5 0 -8 -4 -5 -9 11 -18 -27 -4 -40 14 -8 10
-14 14 -14 8 0 -14 -23 -11 -41 4 -8 6 -18 12 -24 13 -5 1 -9 6 -7 12 1 5 -2
7 -7 4 -5 -4 -12 0 -14 6 -4 10 -6 10 -6 -1z m-464 -176 c0 -8 -4 -12 -9 -9
-5 3 -6 10 -3 15 9 13 12 11 12 -6z m-273 -93 c3 -5 -1 -9 -9 -9 -8 0 -12 4
-9 9 3 4 7 8 9 8 2 0 6 -4 9 -8z m-631 -227 c-3 -9 -8 -14 -10 -11 -3 3 -2 9
2 15 9 16 15 13 8 -4z m161 -491 c3 -8 2 -12 -4 -9 -6 3 -10 10 -10 16 0 14 7
11 14 -7z m2566 -134 c-6 -11 -13 -20 -16 -20 -2 0 0 9 6 20 6 11 13 20 16 20
2 0 0 -9 -6 -20z m-1996 -406 c3 -8 2 -12 -4 -9 -6 3 -10 10 -10 16 0 14 7 11
14 -7z m686 -192 c0 -5 -7 -9 -15 -9 -8 0 -12 4 -9 9 3 4 9 8 15 8 5 0 9 -4 9
-8z m281 -5 c-1 -12 -15 -9 -19 4 -3 6 1 10 8 8 6 -3 11 -8 11 -12z"/>
<path d="M1565 2900 c-4 -6 -11 -7 -17 -4 -7 4 -8 2 -4 -5 6 -9 11 -9 22 0 14
11 18 19 10 19 -3 0 -8 -5 -11 -10z"/>
<path d="M187 2469 c7 -7 15 -10 18 -7 3 3 -2 9 -12 12 -14 6 -15 5 -6 -5z"/>
<path d="M82 1941 c-10 -6 -8 -10 9 -14 19 -5 20 -8 9 -21 -7 -10 -8 -16 -2
-16 6 0 9 -12 7 -27 -2 -16 4 -39 12 -52 14 -22 14 -24 -1 -18 -13 5 -15 3 -8
-11 5 -9 7 -24 5 -32 -2 -8 2 -4 10 9 12 20 15 21 20 7 4 -10 3 -15 -2 -12 -5
3 -11 -3 -14 -14 -3 -11 0 -23 5 -27 7 -4 8 -1 3 7 -5 9 -4 11 3 6 9 -5 7 -15
-5 -34 -15 -24 -16 -25 -1 -14 13 10 16 10 15 0 -1 -41 4 -59 16 -52 7 5 6 0
-3 -11 -11 -14 -12 -17 -1 -10 11 6 13 1 9 -23 -2 -18 0 -29 5 -25 5 3 7 0 5
-8 -3 -8 4 -20 16 -27 13 -9 15 -11 4 -8 -12 3 -15 1 -11 -9 3 -8 10 -12 15
-9 7 5 9 -5 6 -25 -3 -23 0 -35 12 -41 10 -5 19 -8 21 -5 2 2 4 -7 4 -20 0
-13 -3 -21 -7 -18 -5 2 -8 1 -8 -2 0 -9 27 -35 31 -30 2 2 5 -8 6 -22 0 -14 6
-29 13 -33 9 -6 9 -9 -1 -13 -11 -4 -9 -10 8 -25 12 -11 19 -23 15 -27 -4 -5
2 -5 13 -1 16 6 18 5 8 -5 -17 -17 -16 -32 1 -26 10 4 12 0 9 -14 -3 -10 -1
-19 4 -19 5 0 10 -6 11 -12 3 -35 10 -52 23 -56 8 -2 10 0 4 5 -5 4 -11 15
-13 23 -3 11 0 12 8 4 6 -6 12 -18 13 -25 2 -8 7 -20 11 -28 7 -10 5 -12 -5
-7 -8 4 -6 1 5 -8 11 -9 15 -20 10 -28 -5 -9 -2 -8 11 2 17 14 18 14 7 -7 -11
-19 -10 -21 6 -18 12 2 18 -4 20 -16 4 -44 6 -49 19 -49 8 0 11 -5 7 -12 -5
-7 -2 -9 9 -5 12 5 15 0 12 -21 -2 -15 -2 -22 1 -15 4 10 8 10 19 0 7 -7 11
-15 8 -19 -2 -5 1 -8 7 -8 7 0 9 -7 6 -16 -5 -14 -4 -15 9 -4 13 11 14 10 9
-5 -5 -13 -4 -16 4 -11 11 7 17 -7 12 -29 -1 -5 2 -7 6 -3 7 8 44 -28 44 -44
0 -4 8 -8 18 -8 14 0 15 -2 2 -10 -13 -8 -13 -10 2 -10 9 0 20 -9 23 -21 6
-17 9 -18 23 -7 10 8 13 9 9 1 -4 -7 2 -19 15 -28 l23 -17 -25 7 c-19 5 -22 4
-10 -4 8 -6 22 -11 31 -11 9 0 19 -10 22 -21 4 -15 11 -20 23 -15 15 6 15 4 3
-11 -9 -11 -10 -14 -1 -9 7 4 12 2 12 -4 0 -7 7 -10 14 -7 9 4 17 -2 21 -14 4
-10 11 -19 16 -19 6 0 7 -5 3 -12 -4 -6 -3 -8 4 -5 5 4 26 -9 46 -28 20 -19
43 -35 51 -35 7 0 17 -5 21 -12 5 -7 3 -8 -6 -3 -8 5 -11 4 -6 -3 3 -6 16 -9
27 -7 17 3 19 1 9 -10 -8 -10 -8 -15 1 -21 8 -4 9 -3 5 4 -4 7 -2 12 3 12 6 0
11 -5 11 -11 0 -5 4 -7 10 -4 5 3 10 0 10 -7 0 -7 9 -19 21 -26 17 -11 20 -11
14 0 -3 7 1 4 9 -6 9 -11 16 -23 16 -27 0 -4 11 -6 25 -5 13 2 24 0 23 -3 0
-3 0 -13 1 -21 1 -13 2 -13 11 0 9 13 10 13 11 0 1 -8 1 -19 0 -24 -1 -5 4 -4
13 3 12 10 16 8 21 -8 6 -19 23 -27 49 -22 5 1 4 -5 -3 -13 -10 -12 -9 -14 8
-9 13 3 24 -2 33 -16 7 -12 18 -21 25 -21 6 0 14 -8 16 -17 4 -17 5 -17 6 0 0
9 6 17 12 17 5 0 8 -4 5 -9 -3 -4 2 -17 10 -27 14 -18 15 -18 10 -1 -5 16 -3
16 24 -3 17 -12 30 -24 30 -27 0 -3 -8 1 -17 8 -16 13 -17 12 -4 -4 9 -11 18
-14 25 -8 7 6 20 3 36 -11 l25 -20 -29 17 c-16 9 -25 12 -22 6 4 -6 16 -15 26
-21 15 -8 24 -5 40 12 19 21 21 21 15 3 -6 -19 -6 -19 9 -1 9 11 20 15 28 10
10 -6 10 -5 0 9 -12 14 -11 16 8 12 17 -3 19 -1 11 8 -8 10 -3 13 20 11 26 -2
28 0 17 14 -8 10 -9 13 -1 9 6 -4 14 -3 18 3 4 6 11 8 16 5 5 -4 22 3 38 14
16 12 35 21 43 21 10 0 9 3 -2 10 -11 7 -11 10 -2 10 7 0 11 4 7 9 -3 5 0 13
6 17 7 4 9 3 6 -3 -7 -11 22 -28 31 -18 3 3 0 5 -7 5 -9 0 -9 4 1 14 7 8 17
11 22 8 5 -3 7 2 3 10 -4 12 -1 14 15 10 14 -3 19 -1 14 6 -5 8 1 12 14 12 12
0 18 5 15 10 -3 6 3 10 14 10 11 0 23 5 27 12 5 7 3 8 -7 3 -12 -8 -12 -6 0 8
11 13 17 15 28 6 10 -9 12 -9 8 3 -3 8 4 23 17 34 l23 19 -20 -25 -20 -25 20
15 c11 8 28 23 37 33 10 11 22 16 29 11 8 -4 9 -3 5 4 -7 11 6 17 28 13 5 -1
3 6 -5 15 -9 11 -9 15 -2 10 8 -4 23 4 40 21 14 15 22 21 18 13 -7 -12 -6 -13
7 -3 8 7 18 10 22 6 4 -4 4 1 0 12 -6 14 -4 17 9 12 12 -4 14 -2 10 10 -5 11
-3 14 6 8 10 -6 11 -3 2 14 -9 16 -16 19 -29 12 -11 -6 -24 -5 -36 1 -13 7
-17 7 -12 0 3 -6 2 -13 -4 -17 -5 -3 -10 -2 -10 4 0 6 -6 8 -14 5 -8 -3 -12
-13 -9 -22 3 -11 2 -13 -4 -6 -13 18 -53 24 -53 9 0 -8 -4 -17 -10 -20 -5 -3
-7 0 -4 9 4 10 0 14 -15 13 -12 -1 -21 -6 -21 -12 0 -5 -4 -3 -9 5 -6 8 -7 19
-3 25 3 5 -2 4 -11 -4 -19 -15 -23 -26 -5 -15 7 4 8 3 4 -4 -10 -16 -22 -15
-39 3 -13 13 -16 12 -22 -2 -5 -15 -7 -15 -15 -3 -7 10 -10 11 -10 3 0 -7 -5
-13 -11 -13 -5 0 -7 6 -3 13 5 7 0 6 -11 -3 -10 -8 -16 -10 -12 -3 4 6 3 14
-2 17 -5 4 -13 1 -17 -5 -4 -8 -3 -9 4 -5 8 5 10 2 6 -9 -6 -14 -8 -14 -20 2
-11 15 -13 15 -14 3 0 -13 -2 -13 -9 -1 -11 17 -81 22 -74 5 2 -6 -3 -11 -12
-11 -11 0 -14 7 -10 21 5 19 5 19 -5 3 -9 -14 -15 -15 -25 -7 -9 8 -15 8 -20
0 -3 -5 -12 -10 -18 -10 -7 0 -6 4 3 10 16 11 16 11 -40 14 -14 1 -31 5 -37 9
-8 5 -13 3 -13 -3 0 -6 -5 -8 -10 -5 -6 4 -7 12 -3 18 4 7 0 6 -10 -2 -13 -10
-17 -10 -17 -1 0 8 -8 10 -21 7 -15 -4 -18 -3 -9 7 8 10 5 13 -14 11 -14 -2
-30 -6 -37 -11 -7 -4 -10 -3 -6 2 8 14 -23 31 -50 29 -15 -1 -23 4 -24 14 0
10 -2 12 -6 4 -2 -7 -9 -13 -14 -13 -6 0 -7 6 -3 13 6 9 5 9 -8 -1 -13 -10
-18 -9 -29 5 -13 17 -13 17 6 3 18 -14 19 -14 7 2 -14 18 -47 14 -35 -5 3 -6
1 -7 -6 -3 -9 6 -9 11 0 22 10 12 9 13 -6 8 -10 -4 -21 -1 -26 7 -7 12 -9 12
-10 -1 0 -11 -2 -10 -8 3 -4 10 -9 17 -11 16 -3 -1 -16 4 -30 11 -24 13 -24
12 -10 -5 14 -17 14 -17 -7 -4 -12 7 -20 15 -18 18 3 2 -3 10 -13 17 -12 9
-21 9 -29 2 -9 -8 -15 -4 -22 13 -6 14 -10 18 -11 9 -1 -9 -5 -5 -11 9 -7 18
-12 21 -23 12 -11 -10 -18 -7 -30 11 -9 12 -16 18 -17 13 0 -6 -4 0 -10 13 -5
13 -13 20 -19 17 -13 -8 -41 20 -32 31 4 5 -2 2 -12 -6 -18 -14 -19 -13 -13 2
3 10 1 20 -5 24 -7 4 -8 3 -4 -4 4 -7 2 -12 -3 -12 -6 0 -11 5 -11 11 0 5 -5
7 -12 3 -8 -5 -9 -2 -5 9 4 10 2 16 -6 14 -7 -1 -11 4 -9 12 2 11 0 12 -11 3
-10 -9 -16 -7 -27 8 -7 10 -17 17 -22 14 -5 -3 -7 0 -6 8 2 7 -3 12 -9 11 -7
-2 -12 3 -10 9 1 7 -9 14 -22 16 -19 3 -21 6 -10 13 11 7 10 9 -4 9 -10 0 -15
5 -12 10 3 6 -1 10 -10 10 -10 0 -13 5 -9 13 6 8 3 8 -9 -1 -14 -12 -16 -11
-12 7 2 12 0 19 -4 16 -5 -3 -12 2 -15 11 -3 8 -10 13 -14 10 -5 -3 -16 4 -25
15 -9 10 -13 19 -7 19 5 0 14 -8 20 -17 8 -12 10 -13 7 -3 -2 8 -13 20 -25 26
-12 6 -19 14 -14 19 4 4 -1 5 -10 2 -13 -4 -15 -2 -11 10 4 10 2 14 -4 10 -6
-4 -13 3 -16 14 -4 13 -10 18 -18 13 -8 -4 -10 -3 -5 4 4 7 2 12 -4 12 -6 0
-8 5 -5 10 3 6 -1 10 -11 10 -11 0 -15 6 -11 19 3 13 0 18 -8 15 -7 -3 -16 0
-21 7 -5 8 -3 10 7 5 8 -4 6 -1 -3 7 -10 8 -18 18 -18 22 0 4 -8 14 -17 22
-17 14 -17 14 0 9 11 -3 16 -2 12 4 -3 6 -13 10 -21 10 -8 0 -14 7 -14 16 0 9
-10 25 -22 35 -14 13 -17 19 -7 19 8 1 3 7 -11 15 -15 9 -19 15 -10 15 10 0 7
7 -10 21 -14 11 -19 18 -12 14 11 -6 12 -3 3 14 -7 11 -14 21 -17 21 -3 0 -2
-5 2 -12 4 -7 3 -8 -5 -4 -8 5 -9 12 -2 19 11 14 -11 51 -24 39 -5 -4 -5 -1
-1 6 5 8 1 21 -9 32 -15 16 -15 22 -5 35 10 12 10 15 -3 15 -8 0 -18 7 -21 16
-5 14 -4 15 9 4 20 -17 19 -6 -2 15 -13 14 -14 21 -5 36 10 15 10 19 0 17 -8
-2 -13 6 -12 19 1 16 -3 20 -15 16 -9 -4 -13 -3 -9 2 4 4 0 14 -10 22 -15 13
-15 14 8 9 14 -3 19 -3 12 0 -6 3 -9 10 -6 16 4 6 -2 8 -17 3 -17 -4 -20 -4
-10 4 21 14 22 41 3 48 -13 6 -13 8 4 14 18 7 18 8 -1 8 -17 1 -18 3 -5 12 13
9 13 10 -2 6 -9 -3 -18 -2 -20 3 -2 5 -9 6 -16 1z m45 -66 c0 -8 -4 -12 -9 -9
-5 3 -6 10 -3 15 9 13 12 11 12 -6z m178 -613 c-3 -3 -11 0 -18 7 -9 10 -8 11
6 5 10 -3 15 -9 12 -12z m1021 -634 c3 -4 -1 -5 -10 -4 -8 1 -18 5 -22 8 -3 4
1 5 10 4 8 -1 18 -5 22 -8z m358 -66 c3 -5 -1 -9 -9 -9 -8 0 -12 4 -9 9 3 4 7
8 9 8 2 0 6 -4 9 -8z m16 -316 c0 -2 -12 -11 -27 -20 l-28 -17 24 20 c23 21
31 25 31 17z"/>
<path d="M200 1640 c0 -5 5 -10 11 -10 5 0 7 5 4 10 -3 6 -8 10 -11 10 -2 0
-4 -4 -4 -10z"/>
<path d="M920 821 c0 -6 4 -13 10 -16 6 -3 7 1 4 9 -7 18 -14 21 -14 7z"/>
<path d="M2151 594 c0 -11 3 -14 6 -6 3 7 2 16 -1 19 -3 4 -6 -2 -5 -13z"/>
</g>
</svg>
